<svg xmlns="http://www.w3.org/2000/svg" width="1641" height="563" fill="none" viewBox="0 0 1641 563"><g clip-path="url(#clip0)"><path fill="#4E2817" d="M291.55 350.145C272.11 350.145 254.29 347.987 238.63 332.34L258.88 312.107C269.14 322.358 282.37 323.707 292.09 323.707C302.89 323.707 313.96 320.2 313.96 310.758C313.96 304.553 310.72 300.237 300.73 299.427L281.29 297.539C258.88 295.381 245.11 285.669 245.11 262.737C245.11 237.109 267.79 223.08 293.17 223.08C312.61 223.08 328.81 226.317 340.69 237.648L321.52 257.072C314.23 250.597 303.43 248.709 292.63 248.709C280.21 248.709 275.08 254.374 275.08 260.579C275.08 265.165 276.97 270.291 288.04 271.37L307.48 273.259C332.05 275.687 344.47 288.636 344.47 309.679C344.47 337.196 320.98 350.145 291.55 350.145Z"/><path fill="#4E2817" d="M398.47 348.797C373.09 348.797 362.56 330.991 362.56 313.186V251.677H349.33V228.206H362.56V191.516H393.61V228.206H415.48V251.677H393.61V311.297C393.61 318.312 396.85 322.628 404.41 322.628H415.75V348.797H398.47V348.797Z"/><path fill="#4E2817" d="M429.25 203.386V178.027H461.11V203.386H429.25ZM429.79 348.796V224.699H460.84V348.796H429.79Z"/><path fill="#4E2817" d="M530.77 350.145C505.93 350.145 475.15 336.926 475.15 286.478C475.15 236.299 505.93 223.08 530.77 223.08C548.05 223.08 560.74 228.206 571.81 239.806L550.75 260.849C544.27 253.835 538.87 251.137 530.77 251.137C523.48 251.137 517.54 253.835 513.22 259.23C508.36 265.165 506.2 273.529 506.2 286.748C506.2 299.967 508.36 308.33 513.22 314.535C517.81 319.93 523.48 322.628 530.77 322.628C538.87 322.628 544.27 319.661 550.75 312.916L571.81 333.689C560.74 344.75 548.05 350.145 530.77 350.145Z"/><path fill="#4E2817" d="M657.4 348.796L626.89 296.999L613.66 311.837V348.796H582.61V179.106H613.66V275.417L654.97 224.699H692.5L648.22 274.877L696.01 349.066H657.4V348.796Z"/><path fill="#4E2817" d="M721.66 296.19C721.66 312.107 731.38 323.707 748.93 323.707C762.43 323.707 769.18 319.93 777.01 312.107L795.91 330.451C783.22 343.131 771.07 349.875 748.66 349.875C719.23 349.875 691.15 336.656 691.15 286.208C691.15 245.741 713.02 222.81 745.42 222.81C779.98 222.81 799.69 248.169 799.69 282.161V295.92H721.66V296.19ZM766.21 261.658C762.97 254.374 755.95 248.709 745.42 248.709C734.89 248.709 727.87 254.104 724.63 261.658C722.74 266.244 721.93 269.482 721.66 274.877H768.91C768.64 269.482 768.1 266.244 766.21 261.658Z"/><path fill="#4E2817" d="M881.77 258.421C876.91 253.565 872.86 251.137 865.3 251.137C855.85 251.137 845.32 258.421 845.32 274.068V348.797H814.27V224.699H844.51V236.569C850.45 229.285 862.33 223.35 875.83 223.35C887.98 223.35 896.62 226.318 905.26 234.951L881.77 258.421Z"/><path fill="#4E2817" fill-rule="evenodd" d="M143.05 362.555C141.16 363.364 138.73 363.095 136.3 363.364C134.14 363.364 131.17 363.364 129.82 362.285C129.01 361.746 129.01 360.397 129.01 359.588C129.01 358.778 129.28 357.429 129.28 356.62C129.55 355.541 129.82 353.922 129.28 353.113C128.74 352.304 126.85 352.573 125.77 352.034C124.69 351.494 124.42 349.876 124.15 348.257C124.15 347.717 123.61 347.178 123.61 346.908C123.34 344.48 124.15 340.973 124.69 338.545C125.23 335.847 126.04 333.419 126.58 330.721C127.39 326.944 127.39 322.628 127.12 318.581C127.12 316.423 126.58 314.804 127.12 313.186C127.39 311.567 128.2 310.218 128.47 308.6C128.47 308.06 128.47 307.52 128.47 306.981C128.47 306.441 128.74 306.172 128.74 305.632C128.74 304.553 128.47 303.204 128.47 301.855C128.2 298.348 128.47 293.222 128.74 290.255C128.74 289.176 129.28 288.096 128.47 287.557C124.69 287.557 121.45 288.096 117.94 288.636C108.76 289.715 96.8797 289.985 87.9697 288.096C87.1597 287.827 86.3497 287.827 85.5397 287.827C79.0597 286.478 73.3897 283.51 68.7997 280.003C67.9897 279.464 67.1797 278.924 66.3697 278.115C65.5597 277.575 64.7497 276.766 63.9397 276.226C60.4297 274.608 55.5697 276.496 53.9497 278.924C53.4097 279.733 52.8697 281.082 52.3297 282.161C51.7897 283.24 51.2497 284.32 50.9797 285.399C48.5497 290.794 45.8497 296.19 43.4197 301.585C42.0697 304.823 40.4497 308.33 39.3697 311.837C37.2097 319.391 39.0997 329.372 40.9897 336.656C41.2597 337.196 41.5297 338.005 41.7997 338.815C42.3397 340.433 43.4197 342.861 44.7697 343.94C45.5797 344.48 46.6597 345.02 47.4697 345.559C48.5497 346.368 49.0897 347.987 49.8997 349.606C50.1697 350.145 50.7097 350.955 50.9797 351.764C51.7897 353.383 52.3297 354.732 50.4397 355.811C49.0897 356.62 46.9297 356.62 45.0397 356.89C44.2297 357.16 44.4997 358.239 43.9597 358.778C43.6897 359.048 42.3397 359.588 41.7997 359.857C39.3697 360.667 35.0497 360.667 33.1597 359.857C32.0797 359.588 30.9997 358.778 30.7297 357.969C30.1897 356.35 31.5397 354.462 30.4597 353.383C29.9197 352.843 28.8397 352.843 28.0297 352.573C26.6797 352.034 25.5997 350.685 24.7897 349.336C23.4397 345.559 24.2497 339.894 23.9797 335.308C23.9797 333.959 23.7097 332.61 23.7097 330.991C23.7097 328.293 22.8997 325.596 22.6297 322.898C22.3597 321.549 22.0897 320.47 21.8197 319.391C21.2797 317.502 21.0097 315.344 20.4697 313.456C19.9297 311.297 19.9297 309.139 20.4697 307.52C20.7397 306.981 21.2797 306.441 21.5497 305.902C22.0897 304.823 22.0897 303.744 22.0897 302.664C21.8197 302.125 20.4697 302.664 20.1997 302.125C19.3897 296.19 18.5797 290.524 18.0397 284.32C17.7697 282.161 17.7697 280.273 17.7697 278.115C17.4997 274.068 17.7697 269.752 17.2297 265.705C16.9597 263.816 16.6897 261.928 16.4197 260.04C15.6097 254.644 14.2597 247.9 15.3397 242.234C16.1497 238.727 17.2297 235.76 19.3897 233.062C20.7397 231.173 22.3597 229.555 23.9797 227.666C25.5997 226.048 27.4897 224.429 29.3797 223.08C30.7297 222.271 32.0797 221.192 33.4297 220.382C36.3997 219.033 40.4497 217.684 44.7697 217.415C49.0897 217.145 53.9497 217.145 57.9997 217.954C62.0497 218.764 66.0997 219.303 70.1497 220.112C73.9297 220.922 77.7097 222.001 81.4897 222.81C82.0297 222.81 82.2997 223.35 82.8397 223.35C83.9197 223.62 85.2697 223.62 86.6197 224.159C90.1297 224.968 94.4497 225.508 98.7697 225.508C103.36 225.508 107.41 225.508 111.19 224.429C111.73 224.159 112.27 223.889 112.81 223.889C113.35 223.62 114.16 223.62 114.7 223.62C114.97 223.62 115.51 223.08 115.78 222.81C117.94 221.731 119.83 220.652 121.72 219.303C123.34 218.224 124.42 217.415 126.58 216.605C127.39 216.336 128.47 215.796 129.28 215.526C131.17 214.987 133.33 214.447 134.68 213.368C137.11 212.019 138.73 209.861 140.62 207.972C142.51 206.354 144.67 204.465 146.83 202.847C151.15 199.34 155.47 196.372 159.52 193.135C161.68 191.516 163.84 189.897 166.27 188.548C170.86 185.851 175.72 182.883 182.47 182.344C185.17 182.074 187.87 182.074 190.57 182.344C191.38 182.344 192.19 182.883 193 182.613C193.81 182.344 194.35 181.264 194.62 180.455C195.7 178.567 196.24 177.488 197.32 175.329C197.86 173.98 197.59 172.632 198.94 172.632C200.29 172.632 200.02 176.139 200.02 177.488C200.02 179.106 199.75 181.264 200.02 182.344C200.29 183.153 201.37 184.232 202.45 184.232C203.26 184.232 203.8 183.692 204.34 183.153C205.15 182.613 205.69 182.613 206.23 182.074C207.31 181.264 208.66 179.916 209.74 178.836C210.55 178.027 212.17 175.599 213.52 175.869C216.22 176.139 213.52 180.185 212.98 181.264C211.63 184.232 210.28 186.66 208.66 189.358C208.12 190.437 206.5 192.056 206.5 193.404C206.5 194.214 207.31 194.753 207.58 195.832C207.85 196.372 207.85 196.642 208.12 197.181C208.93 199.34 209.74 202.307 210.55 204.735C211.09 206.893 211.63 209.052 212.44 210.94C213.25 212.828 214.33 214.717 215.14 216.875C215.41 217.415 215.41 217.954 215.68 218.494C217.3 222.81 218.92 227.666 221.08 231.983C221.89 233.601 222.97 235.76 222.97 238.188C222.97 240.885 221.62 242.234 220.27 244.392C219.73 245.472 218.65 247.09 217.57 247.36C216.76 247.63 215.95 247.36 215.14 247.36C214.06 247.63 213.25 248.169 212.44 248.169C210.01 248.439 207.58 246.551 207.04 244.662C206.77 244.123 207.04 243.313 206.77 242.504C206.23 239.536 204.61 238.188 202.72 236.029C201.37 234.68 200.29 233.871 198.67 233.062C196.24 231.713 193.81 231.173 191.11 229.824C190.3 229.285 188.95 228.745 188.14 229.015C186.79 229.285 185.44 231.443 184.36 232.792C177.88 241.425 171.94 250.328 165.73 258.691C161.41 264.356 157.09 270.021 153.58 276.226C152.77 277.845 152.23 279.733 151.42 281.622C150.88 283.51 150.34 285.399 149.8 287.557C147.37 294.571 146.56 303.204 144.4 310.488C144.13 311.297 144.13 312.107 143.86 312.916C142.78 316.693 141.7 321.009 140.62 325.056C139.81 328.024 139.54 332.07 139.27 335.847C139.27 339.624 139 344.75 140.35 346.908C141.16 348.257 143.59 348.527 144.4 349.876C144.94 350.685 145.48 352.573 146.29 353.652C146.83 354.462 148.18 356.08 147.91 357.429C147.91 358.239 147.1 359.048 146.29 359.318C145.48 359.588 144.4 359.588 143.59 359.857C143.59 360.936 143.86 362.016 143.05 362.555Z" clip-rule="evenodd"/><path fill="#F26922" d="M1044.58 223.08C1029.19 223.08 1017.85 227.936 1007.32 238.727C999.49 227.936 988.15 223.08 974.38 223.08C963.04 223.08 951.43 227.666 943.33 236.029V224.699H913.09V348.797H944.14V273.798C944.14 256.802 955.21 251.137 964.93 251.137C974.65 251.137 985.45 256.802 985.45 273.798V348.797H1016.5V272.989C1016.5 256.802 1027.84 251.137 1037.29 251.137C1047.01 251.137 1057.81 256.802 1057.81 273.798V348.797H1088.86V269.482C1088.86 255.993 1085.35 244.123 1075.36 234.141C1068.07 227.127 1057 223.08 1044.58 223.08Z"/><path fill="#F26922" d="M1179.31 299.697C1179.31 316.693 1168.24 322.358 1158.52 322.358C1148.8 322.358 1138 316.693 1138 299.697V224.429H1106.95V304.013C1106.95 317.502 1109.65 329.373 1119.64 339.354C1126.66 346.369 1136.65 350.415 1149.07 350.415C1160.41 350.415 1172.02 346.099 1180.12 337.466V348.797H1210.36V224.699H1179.31V299.697V299.697Z"/><path fill="#F26922" d="M1261.12 311.297V179.106H1230.07V313.186C1230.07 330.721 1240.87 348.796 1266.25 348.796H1283.8V322.628H1271.92C1264.09 322.628 1261.12 318.851 1261.12 311.297Z"/><path fill="#F26922" d="M1397.74 282.431C1397.74 248.439 1378.3 223.08 1343.47 223.08C1311.34 223.08 1289.2 246.011 1289.2 286.478C1289.2 336.657 1317.28 350.145 1346.71 350.145C1369.12 350.145 1381.27 343.131 1393.96 330.721L1375.06 312.377C1367.23 320.2 1360.48 323.977 1346.98 323.977C1329.43 323.977 1319.71 312.377 1319.71 296.46H1397.47V282.431H1397.74ZM1319.98 275.147C1320.25 269.752 1321.06 266.245 1322.95 261.928C1326.19 254.644 1333.21 248.979 1343.74 248.979C1354.27 248.979 1361.02 254.374 1364.53 261.928C1366.42 266.514 1367.23 269.752 1367.5 275.147H1319.98Z"/></g><defs><clipPath id="clip0"><rect width="1641" height="563" fill="#fff"/></clipPath></defs></svg>